<svg preserveAspectRatio="none" overflow="visible" style="display: block;" width="25" height="25" viewBox="0 0 25 25" fill="none" xmlns="http://www.w3.org/2000/svg">
<g id="tabler:files-filled">
<path id="Vector" d="M11.4583 2.08333L14.5833 2.08437V8.33333C14.5834 8.58847 14.677 8.83473 14.8466 9.02539C15.0161 9.21605 15.2497 9.33786 15.5031 9.36771L15.625 9.375H21.875V15.625C21.875 16.4538 21.5458 17.2487 20.9597 17.8347C20.3737 18.4208 19.5788 18.75 18.75 18.75H17.7083V19.7917C17.7083 20.6205 17.3791 21.4153 16.793 22.0014C16.207 22.5874 15.4121 22.9167 14.5833 22.9167H7.29167C6.46287 22.9167 5.66801 22.5874 5.08196 22.0014C4.49591 21.4153 4.16667 20.6205 4.16667 19.7917V9.375C4.16667 8.5462 4.49591 7.75134 5.08196 7.16529C5.66801 6.57924 6.46287 6.25 7.29167 6.25H8.33333V5.20833C8.33333 4.37953 8.66257 3.58468 9.24862 2.99862C9.83468 2.41257 10.6295 2.08333 11.4583 2.08333ZM8.33333 8.33333H7.29167C7.0154 8.33333 6.75045 8.44308 6.5551 8.63843C6.35975 8.83378 6.25 9.09873 6.25 9.375V19.7917C6.25 20.0679 6.35975 20.3329 6.5551 20.5282C6.75045 20.7236 7.0154 20.8333 7.29167 20.8333H14.5833C14.8596 20.8333 15.1246 20.7236 15.3199 20.5282C15.5153 20.3329 15.625 20.0679 15.625 19.7917V18.75H11.4583C10.6295 18.75 9.83468 18.4208 9.24862 17.8347C8.66257 17.2487 8.33333 16.4538 8.33333 15.625V8.33333ZM21.2656 7.29167H16.6667V2.69271L21.2656 7.29167Z" fill="#FA4D01"/>
</g>
</svg>
